<mxfile host="app.diagrams.net" modified="2023-05-08T15:47:20.354Z" agent="Mozilla/5.0 (Windows NT 10.0; Win64; x64) AppleWebKit/537.36 (KHTML, like Gecko) Chrome/112.0.0.0 Safari/537.36" etag="6w7ESQb-sO9kA3vr6vNr" version="21.2.9" type="device">
  <diagram id="_Sl_mNcFMcSMRYwEe3K1" name="Page-2">
    <mxGraphModel dx="2100" dy="2082" grid="1" gridSize="10" guides="1" tooltips="1" connect="1" arrows="1" fold="1" page="1" pageScale="1" pageWidth="850" pageHeight="1100" math="0" shadow="0">
      <root>
        <mxCell id="0" />
        <mxCell id="1" parent="0" />
        <mxCell id="D91j-Zu3z-XHINNhoP_f-87" value="" style="html=1;points=[];perimeter=orthogonalPerimeter;outlineConnect=0;targetShapes=umlLifeline;portConstraint=eastwest;newEdgeStyle={&quot;edgeStyle&quot;:&quot;elbowEdgeStyle&quot;,&quot;elbow&quot;:&quot;vertical&quot;,&quot;curved&quot;:0,&quot;rounded&quot;:0};" parent="1" vertex="1">
          <mxGeometry x="1632.5" y="1200" width="10" height="140" as="geometry" />
        </mxCell>
        <mxCell id="D91j-Zu3z-XHINNhoP_f-85" value="" style="html=1;points=[];perimeter=orthogonalPerimeter;outlineConnect=0;targetShapes=umlLifeline;portConstraint=eastwest;newEdgeStyle={&quot;edgeStyle&quot;:&quot;elbowEdgeStyle&quot;,&quot;elbow&quot;:&quot;vertical&quot;,&quot;curved&quot;:0,&quot;rounded&quot;:0};" parent="1" vertex="1">
          <mxGeometry x="1435" y="1080" width="10" height="90" as="geometry" />
        </mxCell>
        <mxCell id="D91j-Zu3z-XHINNhoP_f-81" value="" style="html=1;points=[];perimeter=orthogonalPerimeter;outlineConnect=0;targetShapes=umlLifeline;portConstraint=eastwest;newEdgeStyle={&quot;edgeStyle&quot;:&quot;elbowEdgeStyle&quot;,&quot;elbow&quot;:&quot;vertical&quot;,&quot;curved&quot;:0,&quot;rounded&quot;:0};" parent="1" vertex="1">
          <mxGeometry x="1192" y="881" width="10" height="179" as="geometry" />
        </mxCell>
        <mxCell id="D91j-Zu3z-XHINNhoP_f-33" value="" style="endArrow=none;dashed=1;html=1;rounded=0;entryX=0.5;entryY=1;entryDx=0;entryDy=0;" parent="1" target="Wx3zH8GoYAzsypde5f29-2" edge="1">
          <mxGeometry width="50" height="50" relative="1" as="geometry">
            <mxPoint x="1080" y="1360.800048828125" as="sourcePoint" />
            <mxPoint x="1080" y="170" as="targetPoint" />
          </mxGeometry>
        </mxCell>
        <mxCell id="D91j-Zu3z-XHINNhoP_f-79" value="" style="html=1;points=[];perimeter=orthogonalPerimeter;outlineConnect=0;targetShapes=umlLifeline;portConstraint=eastwest;newEdgeStyle={&quot;edgeStyle&quot;:&quot;elbowEdgeStyle&quot;,&quot;elbow&quot;:&quot;vertical&quot;,&quot;curved&quot;:0,&quot;rounded&quot;:0};" parent="1" vertex="1">
          <mxGeometry x="1074.5" y="800" width="10" height="270" as="geometry" />
        </mxCell>
        <mxCell id="D91j-Zu3z-XHINNhoP_f-75" value="" style="html=1;points=[];perimeter=orthogonalPerimeter;outlineConnect=0;targetShapes=umlLifeline;portConstraint=eastwest;newEdgeStyle={&quot;edgeStyle&quot;:&quot;elbowEdgeStyle&quot;,&quot;elbow&quot;:&quot;vertical&quot;,&quot;curved&quot;:0,&quot;rounded&quot;:0};" parent="1" vertex="1">
          <mxGeometry x="798" y="520" width="10" height="580" as="geometry" />
        </mxCell>
        <mxCell id="J4Q3_kez4P0OOdDd1wU0-27" value="" style="endArrow=none;dashed=1;html=1;rounded=0;" parent="1" edge="1">
          <mxGeometry width="50" height="50" relative="1" as="geometry">
            <mxPoint x="680" y="1360" as="sourcePoint" />
            <mxPoint x="680" y="160" as="targetPoint" />
          </mxGeometry>
        </mxCell>
        <mxCell id="D91j-Zu3z-XHINNhoP_f-74" value="" style="html=1;points=[];perimeter=orthogonalPerimeter;outlineConnect=0;targetShapes=umlLifeline;portConstraint=eastwest;newEdgeStyle={&quot;edgeStyle&quot;:&quot;elbowEdgeStyle&quot;,&quot;elbow&quot;:&quot;vertical&quot;,&quot;curved&quot;:0,&quot;rounded&quot;:0};" parent="1" vertex="1">
          <mxGeometry x="675" y="400" width="10" height="40" as="geometry" />
        </mxCell>
        <mxCell id="D91j-Zu3z-XHINNhoP_f-72" value="" style="html=1;points=[];perimeter=orthogonalPerimeter;outlineConnect=0;targetShapes=umlLifeline;portConstraint=eastwest;newEdgeStyle={&quot;edgeStyle&quot;:&quot;elbowEdgeStyle&quot;,&quot;elbow&quot;:&quot;vertical&quot;,&quot;curved&quot;:0,&quot;rounded&quot;:0};" parent="1" vertex="1">
          <mxGeometry x="555" y="400" width="10" height="110" as="geometry" />
        </mxCell>
        <mxCell id="D91j-Zu3z-XHINNhoP_f-65" value="" style="html=1;points=[];perimeter=orthogonalPerimeter;outlineConnect=0;targetShapes=umlLifeline;portConstraint=eastwest;newEdgeStyle={&quot;edgeStyle&quot;:&quot;elbowEdgeStyle&quot;,&quot;elbow&quot;:&quot;vertical&quot;,&quot;curved&quot;:0,&quot;rounded&quot;:0};" parent="1" vertex="1">
          <mxGeometry x="314" y="240" width="10" height="130" as="geometry" />
        </mxCell>
        <mxCell id="D91j-Zu3z-XHINNhoP_f-63" value="" style="html=1;points=[];perimeter=orthogonalPerimeter;outlineConnect=0;targetShapes=umlLifeline;portConstraint=eastwest;newEdgeStyle={&quot;edgeStyle&quot;:&quot;elbowEdgeStyle&quot;,&quot;elbow&quot;:&quot;vertical&quot;,&quot;curved&quot;:0,&quot;rounded&quot;:0};" parent="1" vertex="1">
          <mxGeometry x="193" y="200" width="10" height="380" as="geometry" />
        </mxCell>
        <mxCell id="5GjJMdv-wg4faUIwn9fN-2" value="" style="endArrow=none;dashed=1;html=1;rounded=0;entryX=0.444;entryY=1.095;entryDx=0;entryDy=0;entryPerimeter=0;" parent="1" source="D91j-Zu3z-XHINNhoP_f-65" target="J4Q3_kez4P0OOdDd1wU0-9" edge="1">
          <mxGeometry width="50" height="50" relative="1" as="geometry">
            <mxPoint x="330" y="1360" as="sourcePoint" />
            <mxPoint x="401.20000000000005" y="140.00000000000009" as="targetPoint" />
          </mxGeometry>
        </mxCell>
        <mxCell id="CS3KcbrQaqgQMqMds59z-1" value="Χειριστής" style="shape=umlActor;verticalLabelPosition=bottom;verticalAlign=top;html=1;" parent="1" vertex="1">
          <mxGeometry x="80" y="90" width="30" height="60" as="geometry" />
        </mxCell>
        <mxCell id="l-Ybo9VVnQ7uTTjx2F1L-1" value="Απλός χρήστης" style="shape=umlActor;verticalLabelPosition=bottom;verticalAlign=top;html=1;" parent="1" vertex="1">
          <mxGeometry x="40" y="-30" width="30" height="60" as="geometry" />
        </mxCell>
        <mxCell id="0-zvZKWVqOoyFjQTl4Zy-1" value="Ξεναγός" style="shape=umlActor;verticalLabelPosition=bottom;verticalAlign=top;html=1;" parent="1" vertex="1">
          <mxGeometry x="130" y="-30" width="30" height="60" as="geometry" />
        </mxCell>
        <mxCell id="0-zvZKWVqOoyFjQTl4Zy-3" value="" style="endArrow=classic;html=1;rounded=0;entryX=0.5;entryY=0;entryDx=0;entryDy=0;entryPerimeter=0;" parent="1" target="CS3KcbrQaqgQMqMds59z-1" edge="1">
          <mxGeometry width="50" height="50" relative="1" as="geometry">
            <mxPoint x="140" y="60" as="sourcePoint" />
            <mxPoint x="420" y="110" as="targetPoint" />
            <Array as="points">
              <mxPoint x="95" y="60" />
            </Array>
          </mxGeometry>
        </mxCell>
        <mxCell id="0-zvZKWVqOoyFjQTl4Zy-4" value="" style="endArrow=none;html=1;rounded=0;" parent="1" edge="1">
          <mxGeometry width="50" height="50" relative="1" as="geometry">
            <mxPoint x="50" y="60" as="sourcePoint" />
            <mxPoint x="100" y="60" as="targetPoint" />
          </mxGeometry>
        </mxCell>
        <mxCell id="0-zvZKWVqOoyFjQTl4Zy-5" value="" style="endArrow=none;dashed=1;html=1;rounded=0;" parent="1" edge="1">
          <mxGeometry width="50" height="50" relative="1" as="geometry">
            <mxPoint x="90" y="1360" as="sourcePoint" />
            <mxPoint x="90" y="170" as="targetPoint" />
          </mxGeometry>
        </mxCell>
        <mxCell id="hsD9cu6gRdxo353yC3C1-1" value="show()" style="text;html=1;strokeColor=none;fillColor=none;align=center;verticalAlign=middle;whiteSpace=wrap;rounded=0;" parent="1" vertex="1">
          <mxGeometry x="237" y="170" width="60" height="30" as="geometry" />
        </mxCell>
        <mxCell id="hsD9cu6gRdxo353yC3C1-8" value="getJobOffer()" style="text;html=1;strokeColor=none;fillColor=none;align=center;verticalAlign=middle;whiteSpace=wrap;rounded=0;" parent="1" vertex="1">
          <mxGeometry x="590" y="370" width="60" height="30" as="geometry" />
        </mxCell>
        <mxCell id="GbCf4EIsEKDoDzpmdFNO-1" value="" style="endArrow=classic;html=1;rounded=0;" parent="1" source="D91j-Zu3z-XHINNhoP_f-63" edge="1">
          <mxGeometry width="50" height="50" relative="1" as="geometry">
            <mxPoint x="200" y="440" as="sourcePoint" />
            <mxPoint x="560" y="440" as="targetPoint" />
          </mxGeometry>
        </mxCell>
        <mxCell id="GbCf4EIsEKDoDzpmdFNO-2" value="show()" style="text;html=1;strokeColor=none;fillColor=none;align=center;verticalAlign=middle;whiteSpace=wrap;rounded=0;" parent="1" vertex="1">
          <mxGeometry x="490" y="410" width="60" height="30" as="geometry" />
        </mxCell>
        <mxCell id="pKqpbwmX6VhLtf1ekYCj-2" value="validateForm()" style="text;html=1;strokeColor=none;fillColor=none;align=center;verticalAlign=middle;whiteSpace=wrap;rounded=0;" parent="1" vertex="1">
          <mxGeometry x="849" y="600" width="60" height="30" as="geometry" />
        </mxCell>
        <mxCell id="aM6IXAYvvsA6Lvx5sWkO-3" value="showMessage()" style="text;html=1;strokeColor=none;fillColor=none;align=center;verticalAlign=middle;whiteSpace=wrap;rounded=0;" parent="1" vertex="1">
          <mxGeometry x="860" y="650" width="60" height="30" as="geometry" />
        </mxCell>
        <mxCell id="Wx3zH8GoYAzsypde5f29-2" value="UploadFilesView" style="html=1;whiteSpace=wrap;" parent="1" vertex="1">
          <mxGeometry x="1025" y="119" width="109" height="40" as="geometry" />
        </mxCell>
        <mxCell id="Wx3zH8GoYAzsypde5f29-6" value="validateFileSize()" style="text;html=1;strokeColor=none;fillColor=none;align=center;verticalAlign=middle;whiteSpace=wrap;rounded=0;" parent="1" vertex="1">
          <mxGeometry x="1110" y="854" width="60" height="30" as="geometry" />
        </mxCell>
        <mxCell id="Wx3zH8GoYAzsypde5f29-10" value="invalidSize" style="text;html=1;strokeColor=none;fillColor=none;align=center;verticalAlign=middle;whiteSpace=wrap;rounded=0;" parent="1" vertex="1">
          <mxGeometry x="1110" y="890" width="60" height="30" as="geometry" />
        </mxCell>
        <mxCell id="Wx3zH8GoYAzsypde5f29-14" value="show()" style="text;html=1;strokeColor=none;fillColor=none;align=center;verticalAlign=middle;whiteSpace=wrap;rounded=0;" parent="1" vertex="1">
          <mxGeometry x="988" y="774" width="60" height="30" as="geometry" />
        </mxCell>
        <mxCell id="Wx3zH8GoYAzsypde5f29-17" value="validSize" style="text;html=1;strokeColor=none;fillColor=none;align=center;verticalAlign=middle;whiteSpace=wrap;rounded=0;" parent="1" vertex="1">
          <mxGeometry x="1111" y="1015" width="60" height="30" as="geometry" />
        </mxCell>
        <mxCell id="Sp0JfkNnouSUE2TYpauw-1" value="" style="endArrow=none;dashed=1;html=1;rounded=0;entryX=0.604;entryY=1.031;entryDx=0;entryDy=0;entryPerimeter=0;" parent="1" source="D91j-Zu3z-XHINNhoP_f-81" edge="1">
          <mxGeometry width="50" height="50" relative="1" as="geometry">
            <mxPoint x="1200" y="1363.2000325520833" as="sourcePoint" />
            <mxPoint x="1200.4" y="152.17000000000007" as="targetPoint" />
          </mxGeometry>
        </mxCell>
        <mxCell id="Sp0JfkNnouSUE2TYpauw-3" value="show()" style="text;html=1;strokeColor=none;fillColor=none;align=center;verticalAlign=middle;whiteSpace=wrap;rounded=0;" parent="1" vertex="1">
          <mxGeometry x="1231" y="931" width="60" height="30" as="geometry" />
        </mxCell>
        <mxCell id="DBzs5WyBsPnDjGuK_d3k-7" value="store()" style="text;html=1;strokeColor=none;fillColor=none;align=center;verticalAlign=middle;whiteSpace=wrap;rounded=0;" parent="1" vertex="1">
          <mxGeometry x="1655" y="1205" width="60" height="30" as="geometry" />
        </mxCell>
        <mxCell id="J4Q3_kez4P0OOdDd1wU0-4" value="sendApplication()" style="text;html=1;strokeColor=none;fillColor=none;align=center;verticalAlign=middle;whiteSpace=wrap;rounded=0;" parent="1" vertex="1">
          <mxGeometry x="1696" y="1253" width="60" height="30" as="geometry" />
        </mxCell>
        <mxCell id="J4Q3_kez4P0OOdDd1wU0-7" value="showMessage()" style="text;html=1;strokeColor=none;fillColor=none;align=center;verticalAlign=middle;whiteSpace=wrap;rounded=0;" parent="1" vertex="1">
          <mxGeometry x="1836" y="1294" width="60" height="30" as="geometry" />
        </mxCell>
        <mxCell id="J4Q3_kez4P0OOdDd1wU0-8" value="&lt;b&gt;:JobOffersListController&lt;/b&gt;" style="html=1;whiteSpace=wrap;" parent="1" vertex="1">
          <mxGeometry x="120" y="120" width="142" height="40" as="geometry" />
        </mxCell>
        <mxCell id="J4Q3_kez4P0OOdDd1wU0-9" value="SearchView" style="html=1;whiteSpace=wrap;" parent="1" vertex="1">
          <mxGeometry x="271" y="120" width="110" height="40" as="geometry" />
        </mxCell>
        <mxCell id="J4Q3_kez4P0OOdDd1wU0-10" value="JobOfferInfoView" style="html=1;whiteSpace=wrap;" parent="1" vertex="1">
          <mxGeometry x="510" y="120" width="109" height="39" as="geometry" />
        </mxCell>
        <mxCell id="J4Q3_kez4P0OOdDd1wU0-11" value="&lt;b&gt;:JobOffer&lt;/b&gt;" style="html=1;whiteSpace=wrap;" parent="1" vertex="1">
          <mxGeometry x="630" y="120" width="100" height="39" as="geometry" />
        </mxCell>
        <mxCell id="J4Q3_kez4P0OOdDd1wU0-12" value="&lt;b&gt;:JobApplicationController&lt;/b&gt;" style="html=1;whiteSpace=wrap;" parent="1" vertex="1">
          <mxGeometry x="735" y="119" width="150" height="40" as="geometry" />
        </mxCell>
        <mxCell id="J4Q3_kez4P0OOdDd1wU0-13" value="MissingInfoMessage" style="html=1;whiteSpace=wrap;" parent="1" vertex="1">
          <mxGeometry x="892" y="119" width="119" height="40" as="geometry" />
        </mxCell>
        <mxCell id="J4Q3_kez4P0OOdDd1wU0-14" value="UserFiles" style="html=1;whiteSpace=wrap;" parent="1" vertex="1">
          <mxGeometry x="1144" y="120" width="106" height="39" as="geometry" />
        </mxCell>
        <mxCell id="J4Q3_kez4P0OOdDd1wU0-15" value="ValidationView" style="html=1;whiteSpace=wrap;" parent="1" vertex="1">
          <mxGeometry x="1390" y="120" width="100" height="40" as="geometry" />
        </mxCell>
        <mxCell id="J4Q3_kez4P0OOdDd1wU0-16" value="&lt;b&gt;:JobApplication&lt;/b&gt;" style="html=1;whiteSpace=wrap;" parent="1" vertex="1">
          <mxGeometry x="1583" y="1138" width="107" height="46" as="geometry" />
        </mxCell>
        <mxCell id="J4Q3_kez4P0OOdDd1wU0-18" value="" style="endArrow=none;dashed=1;html=1;rounded=0;entryX=0.5;entryY=1;entryDx=0;entryDy=0;" parent="1" source="D91j-Zu3z-XHINNhoP_f-63" edge="1">
          <mxGeometry width="50" height="50" relative="1" as="geometry">
            <mxPoint x="200" y="1360" as="sourcePoint" />
            <mxPoint x="199" y="160" as="targetPoint" />
          </mxGeometry>
        </mxCell>
        <mxCell id="J4Q3_kez4P0OOdDd1wU0-24" value="" style="endArrow=none;dashed=1;html=1;rounded=0;entryX=0.444;entryY=1;entryDx=0;entryDy=0;entryPerimeter=0;" parent="1" source="D91j-Zu3z-XHINNhoP_f-72" target="J4Q3_kez4P0OOdDd1wU0-10" edge="1">
          <mxGeometry width="50" height="50" relative="1" as="geometry">
            <mxPoint x="561" y="1360" as="sourcePoint" />
            <mxPoint x="561.1199999999999" y="426.2739999999999" as="targetPoint" />
          </mxGeometry>
        </mxCell>
        <mxCell id="J4Q3_kez4P0OOdDd1wU0-42" value="Missing Info" style="text;html=1;strokeColor=none;fillColor=none;align=center;verticalAlign=middle;whiteSpace=wrap;rounded=0;" parent="1" vertex="1">
          <mxGeometry x="701" y="663" width="91" height="10" as="geometry" />
        </mxCell>
        <mxCell id="J4Q3_kez4P0OOdDd1wU0-43" value="Valid Info" style="text;html=1;strokeColor=none;fillColor=none;align=center;verticalAlign=middle;whiteSpace=wrap;rounded=0;" parent="1" vertex="1">
          <mxGeometry x="689" y="786" width="105" height="20" as="geometry" />
        </mxCell>
        <mxCell id="J4Q3_kez4P0OOdDd1wU0-46" value="Valid file size" style="text;html=1;strokeColor=none;fillColor=none;align=center;verticalAlign=middle;whiteSpace=wrap;rounded=0;" parent="1" vertex="1">
          <mxGeometry x="701" y="1050" width="110" height="10" as="geometry" />
        </mxCell>
        <mxCell id="J4Q3_kez4P0OOdDd1wU0-47" value="Invalid file size" style="text;html=1;strokeColor=none;fillColor=none;align=center;verticalAlign=middle;whiteSpace=wrap;rounded=0;" parent="1" vertex="1">
          <mxGeometry x="691.5" y="928" width="110" height="14" as="geometry" />
        </mxCell>
        <mxCell id="D91j-Zu3z-XHINNhoP_f-1" value="" style="endArrow=classic;html=1;rounded=0;" parent="1" edge="1">
          <mxGeometry width="50" height="50" relative="1" as="geometry">
            <mxPoint x="200" y="200" as="sourcePoint" />
            <mxPoint x="320" y="200" as="targetPoint" />
          </mxGeometry>
        </mxCell>
        <mxCell id="D91j-Zu3z-XHINNhoP_f-7" value="TagsList" style="html=1;whiteSpace=wrap;" parent="1" vertex="1">
          <mxGeometry x="390" y="120" width="110" height="40" as="geometry" />
        </mxCell>
        <mxCell id="D91j-Zu3z-XHINNhoP_f-8" value="" style="endArrow=none;dashed=1;html=1;rounded=0;" parent="1" edge="1">
          <mxGeometry width="50" height="50" relative="1" as="geometry">
            <mxPoint x="440" y="1361.60009765625" as="sourcePoint" />
            <mxPoint x="440" y="170" as="targetPoint" />
          </mxGeometry>
        </mxCell>
        <mxCell id="D91j-Zu3z-XHINNhoP_f-9" value="" style="endArrow=classic;html=1;rounded=0;" parent="1" edge="1">
          <mxGeometry width="50" height="50" relative="1" as="geometry">
            <mxPoint x="320" y="240" as="sourcePoint" />
            <mxPoint x="440" y="240" as="targetPoint" />
          </mxGeometry>
        </mxCell>
        <mxCell id="D91j-Zu3z-XHINNhoP_f-10" value="loadTags()" style="text;html=1;strokeColor=none;fillColor=none;align=center;verticalAlign=middle;whiteSpace=wrap;rounded=0;" parent="1" vertex="1">
          <mxGeometry x="350" y="210" width="60" height="30" as="geometry" />
        </mxCell>
        <mxCell id="D91j-Zu3z-XHINNhoP_f-11" value="" style="endArrow=classic;html=1;rounded=0;dashed=1;" parent="1" source="D91j-Zu3z-XHINNhoP_f-69" edge="1">
          <mxGeometry width="50" height="50" relative="1" as="geometry">
            <mxPoint x="440" y="280" as="sourcePoint" />
            <mxPoint x="320" y="280" as="targetPoint" />
          </mxGeometry>
        </mxCell>
        <mxCell id="D91j-Zu3z-XHINNhoP_f-14" value="retTagsList()" style="text;html=1;strokeColor=none;fillColor=none;align=center;verticalAlign=middle;whiteSpace=wrap;rounded=0;" parent="1" vertex="1">
          <mxGeometry x="349" y="255" width="60" height="30" as="geometry" />
        </mxCell>
        <mxCell id="D91j-Zu3z-XHINNhoP_f-15" value="" style="endArrow=classic;html=1;rounded=0;" parent="1" edge="1">
          <mxGeometry width="50" height="50" relative="1" as="geometry">
            <mxPoint x="90" y="306" as="sourcePoint" />
            <mxPoint x="320" y="306" as="targetPoint" />
          </mxGeometry>
        </mxCell>
        <mxCell id="D91j-Zu3z-XHINNhoP_f-16" value="" style="endArrow=classic;html=1;rounded=0;dashed=1;" parent="1" edge="1">
          <mxGeometry width="50" height="50" relative="1" as="geometry">
            <mxPoint x="320" y="346" as="sourcePoint" />
            <mxPoint x="200" y="346" as="targetPoint" />
          </mxGeometry>
        </mxCell>
        <mxCell id="D91j-Zu3z-XHINNhoP_f-17" value="retSearchResults()" style="text;html=1;strokeColor=none;fillColor=none;align=center;verticalAlign=middle;whiteSpace=wrap;rounded=0;" parent="1" vertex="1">
          <mxGeometry x="233" y="319" width="60" height="30" as="geometry" />
        </mxCell>
        <mxCell id="D91j-Zu3z-XHINNhoP_f-18" value="" style="endArrow=classic;html=1;rounded=0;" parent="1" edge="1">
          <mxGeometry width="50" height="50" relative="1" as="geometry">
            <mxPoint x="90" y="416" as="sourcePoint" />
            <mxPoint x="200" y="416" as="targetPoint" />
          </mxGeometry>
        </mxCell>
        <mxCell id="D91j-Zu3z-XHINNhoP_f-19" value="" style="endArrow=classic;html=1;rounded=0;" parent="1" edge="1">
          <mxGeometry width="50" height="50" relative="1" as="geometry">
            <mxPoint x="560" y="400" as="sourcePoint" />
            <mxPoint x="680" y="400" as="targetPoint" />
          </mxGeometry>
        </mxCell>
        <mxCell id="D91j-Zu3z-XHINNhoP_f-20" value="" style="endArrow=classic;html=1;rounded=0;" parent="1" edge="1">
          <mxGeometry width="50" height="50" relative="1" as="geometry">
            <mxPoint x="90" y="480" as="sourcePoint" />
            <mxPoint x="560" y="480" as="targetPoint" />
          </mxGeometry>
        </mxCell>
        <mxCell id="D91j-Zu3z-XHINNhoP_f-23" value="" style="endArrow=none;dashed=1;html=1;rounded=0;" parent="1" source="D91j-Zu3z-XHINNhoP_f-75" edge="1">
          <mxGeometry width="50" height="50" relative="1" as="geometry">
            <mxPoint x="801" y="1360" as="sourcePoint" />
            <mxPoint x="801" y="160" as="targetPoint" />
          </mxGeometry>
        </mxCell>
        <mxCell id="D91j-Zu3z-XHINNhoP_f-24" value="" style="endArrow=classic;html=1;rounded=0;" parent="1" source="D91j-Zu3z-XHINNhoP_f-63" edge="1">
          <mxGeometry width="50" height="50" relative="1" as="geometry">
            <mxPoint x="200" y="520" as="sourcePoint" />
            <mxPoint x="800" y="520" as="targetPoint" />
          </mxGeometry>
        </mxCell>
        <mxCell id="D91j-Zu3z-XHINNhoP_f-25" value="show()" style="text;html=1;strokeColor=none;fillColor=none;align=center;verticalAlign=middle;whiteSpace=wrap;rounded=0;" parent="1" vertex="1">
          <mxGeometry x="711" y="490" width="60" height="30" as="geometry" />
        </mxCell>
        <mxCell id="D91j-Zu3z-XHINNhoP_f-26" value="" style="endArrow=classic;html=1;rounded=0;" parent="1" edge="1">
          <mxGeometry width="50" height="50" relative="1" as="geometry">
            <mxPoint x="90" y="560" as="sourcePoint" />
            <mxPoint x="800" y="560" as="targetPoint" />
          </mxGeometry>
        </mxCell>
        <mxCell id="D91j-Zu3z-XHINNhoP_f-27" value="" style="endArrow=classic;html=1;rounded=0;" parent="1" edge="1">
          <mxGeometry width="50" height="50" relative="1" as="geometry">
            <mxPoint x="809" y="600" as="sourcePoint" />
            <mxPoint x="809" y="641" as="targetPoint" />
            <Array as="points">
              <mxPoint x="839" y="600" />
              <mxPoint x="839" y="641" />
            </Array>
          </mxGeometry>
        </mxCell>
        <mxCell id="D91j-Zu3z-XHINNhoP_f-28" value="" style="endArrow=none;dashed=1;html=1;rounded=0;" parent="1" source="D91j-Zu3z-XHINNhoP_f-77" edge="1">
          <mxGeometry width="50" height="50" relative="1" as="geometry">
            <mxPoint x="950" y="1360" as="sourcePoint" />
            <mxPoint x="950" y="160" as="targetPoint" />
          </mxGeometry>
        </mxCell>
        <mxCell id="D91j-Zu3z-XHINNhoP_f-29" value="" style="endArrow=classic;html=1;rounded=0;" parent="1" source="D91j-Zu3z-XHINNhoP_f-75" edge="1">
          <mxGeometry width="50" height="50" relative="1" as="geometry">
            <mxPoint x="800" y="680" as="sourcePoint" />
            <mxPoint x="950" y="680" as="targetPoint" />
          </mxGeometry>
        </mxCell>
        <mxCell id="D91j-Zu3z-XHINNhoP_f-30" value="" style="endArrow=classic;html=1;rounded=0;" parent="1" edge="1">
          <mxGeometry width="50" height="50" relative="1" as="geometry">
            <mxPoint x="808" y="726" as="sourcePoint" />
            <mxPoint x="808" y="767" as="targetPoint" />
            <Array as="points">
              <mxPoint x="838" y="726" />
              <mxPoint x="838" y="767" />
            </Array>
          </mxGeometry>
        </mxCell>
        <mxCell id="D91j-Zu3z-XHINNhoP_f-31" value="validateForm()" style="text;html=1;strokeColor=none;fillColor=none;align=center;verticalAlign=middle;whiteSpace=wrap;rounded=0;" parent="1" vertex="1">
          <mxGeometry x="850" y="728" width="60" height="30" as="geometry" />
        </mxCell>
        <mxCell id="D91j-Zu3z-XHINNhoP_f-32" value="" style="endArrow=classic;html=1;rounded=0;" parent="1" source="D91j-Zu3z-XHINNhoP_f-75" edge="1">
          <mxGeometry width="50" height="50" relative="1" as="geometry">
            <mxPoint x="800" y="800" as="sourcePoint" />
            <mxPoint x="1080" y="800" as="targetPoint" />
          </mxGeometry>
        </mxCell>
        <mxCell id="D91j-Zu3z-XHINNhoP_f-36" value="" style="endArrow=classic;html=1;rounded=0;" parent="1" source="D91j-Zu3z-XHINNhoP_f-75" edge="1">
          <mxGeometry width="50" height="50" relative="1" as="geometry">
            <mxPoint x="810" y="890" as="sourcePoint" />
            <mxPoint x="1200" y="880" as="targetPoint" />
          </mxGeometry>
        </mxCell>
        <mxCell id="D91j-Zu3z-XHINNhoP_f-37" value="" style="endArrow=classic;html=1;rounded=0;dashed=1;" parent="1" edge="1">
          <mxGeometry width="50" height="50" relative="1" as="geometry">
            <mxPoint x="1200" y="920" as="sourcePoint" />
            <mxPoint x="800" y="920" as="targetPoint" />
          </mxGeometry>
        </mxCell>
        <mxCell id="D91j-Zu3z-XHINNhoP_f-40" value="" style="endArrow=classic;html=1;rounded=0;" parent="1" edge="1">
          <mxGeometry width="50" height="50" relative="1" as="geometry">
            <mxPoint x="800" y="960" as="sourcePoint" />
            <mxPoint x="1320" y="960" as="targetPoint" />
          </mxGeometry>
        </mxCell>
        <mxCell id="D91j-Zu3z-XHINNhoP_f-41" value="InvalidSizeMessage" style="html=1;whiteSpace=wrap;" parent="1" vertex="1">
          <mxGeometry x="1266" y="119.25" width="110" height="39.5" as="geometry" />
        </mxCell>
        <mxCell id="D91j-Zu3z-XHINNhoP_f-42" value="" style="endArrow=none;dashed=1;html=1;rounded=0;entryX=0.5;entryY=1;entryDx=0;entryDy=0;" parent="1" source="D91j-Zu3z-XHINNhoP_f-83" target="D91j-Zu3z-XHINNhoP_f-41" edge="1">
          <mxGeometry width="50" height="50" relative="1" as="geometry">
            <mxPoint x="1320" y="1360" as="sourcePoint" />
            <mxPoint x="1130" y="50" as="targetPoint" />
          </mxGeometry>
        </mxCell>
        <mxCell id="D91j-Zu3z-XHINNhoP_f-43" value="" style="endArrow=classic;html=1;rounded=0;" parent="1" source="D91j-Zu3z-XHINNhoP_f-75" edge="1">
          <mxGeometry width="50" height="50" relative="1" as="geometry">
            <mxPoint x="800" y="1000" as="sourcePoint" />
            <mxPoint x="1200" y="1000" as="targetPoint" />
          </mxGeometry>
        </mxCell>
        <mxCell id="D91j-Zu3z-XHINNhoP_f-44" value="validateFileSize()" style="text;html=1;strokeColor=none;fillColor=none;align=center;verticalAlign=middle;whiteSpace=wrap;rounded=0;" parent="1" vertex="1">
          <mxGeometry x="1110" y="973" width="60" height="30" as="geometry" />
        </mxCell>
        <mxCell id="D91j-Zu3z-XHINNhoP_f-45" value="" style="endArrow=classic;html=1;rounded=0;dashed=1;" parent="1" edge="1">
          <mxGeometry width="50" height="50" relative="1" as="geometry">
            <mxPoint x="1200" y="1040" as="sourcePoint" />
            <mxPoint x="800" y="1040" as="targetPoint" />
          </mxGeometry>
        </mxCell>
        <mxCell id="D91j-Zu3z-XHINNhoP_f-47" value="" style="endArrow=none;dashed=1;html=1;rounded=0;entryX=0.5;entryY=1;entryDx=0;entryDy=0;" parent="1" source="D91j-Zu3z-XHINNhoP_f-85" target="J4Q3_kez4P0OOdDd1wU0-15" edge="1">
          <mxGeometry width="50" height="50" relative="1" as="geometry">
            <mxPoint x="1440" y="1361.0665690104167" as="sourcePoint" />
            <mxPoint x="1290" y="390" as="targetPoint" />
          </mxGeometry>
        </mxCell>
        <mxCell id="D91j-Zu3z-XHINNhoP_f-48" value="" style="endArrow=classic;html=1;rounded=0;" parent="1" source="D91j-Zu3z-XHINNhoP_f-75" edge="1">
          <mxGeometry width="50" height="50" relative="1" as="geometry">
            <mxPoint x="800" y="1080" as="sourcePoint" />
            <mxPoint x="1440" y="1080" as="targetPoint" />
          </mxGeometry>
        </mxCell>
        <mxCell id="D91j-Zu3z-XHINNhoP_f-49" value="show()" style="text;html=1;strokeColor=none;fillColor=none;align=center;verticalAlign=middle;whiteSpace=wrap;rounded=0;" parent="1" vertex="1">
          <mxGeometry x="1350" y="1050" width="60" height="30" as="geometry" />
        </mxCell>
        <mxCell id="D91j-Zu3z-XHINNhoP_f-50" value="" style="endArrow=classic;html=1;rounded=0;" parent="1" edge="1">
          <mxGeometry width="50" height="50" relative="1" as="geometry">
            <mxPoint x="90" y="1120" as="sourcePoint" />
            <mxPoint x="1440" y="1120" as="targetPoint" />
          </mxGeometry>
        </mxCell>
        <mxCell id="D91j-Zu3z-XHINNhoP_f-52" value="" style="endArrow=none;dashed=1;html=1;rounded=0;" parent="1" source="D91j-Zu3z-XHINNhoP_f-87" edge="1">
          <mxGeometry width="50" height="50" relative="1" as="geometry">
            <mxPoint x="1639" y="1360" as="sourcePoint" />
            <mxPoint x="1639" y="1190" as="targetPoint" />
          </mxGeometry>
        </mxCell>
        <mxCell id="D91j-Zu3z-XHINNhoP_f-53" value="" style="endArrow=classic;html=1;rounded=0;entryX=0;entryY=0.5;entryDx=0;entryDy=0;" parent="1" target="J4Q3_kez4P0OOdDd1wU0-16" edge="1">
          <mxGeometry width="50" height="50" relative="1" as="geometry">
            <mxPoint x="798.4000244140625" y="1160" as="sourcePoint" />
            <mxPoint x="1500" y="1120" as="targetPoint" />
          </mxGeometry>
        </mxCell>
        <mxCell id="D91j-Zu3z-XHINNhoP_f-54" value="createJobApplication()" style="text;html=1;strokeColor=none;fillColor=none;align=center;verticalAlign=middle;whiteSpace=wrap;rounded=0;" parent="1" vertex="1">
          <mxGeometry x="1480" y="1136" width="60" height="30" as="geometry" />
        </mxCell>
        <mxCell id="D91j-Zu3z-XHINNhoP_f-55" value="" style="endArrow=classic;html=1;rounded=0;" parent="1" edge="1">
          <mxGeometry width="50" height="50" relative="1" as="geometry">
            <mxPoint x="1644" y="1201" as="sourcePoint" />
            <mxPoint x="1644" y="1241" as="targetPoint" />
            <Array as="points">
              <mxPoint x="1664" y="1201" />
              <mxPoint x="1664" y="1241" />
            </Array>
          </mxGeometry>
        </mxCell>
        <mxCell id="D91j-Zu3z-XHINNhoP_f-56" value="&lt;b&gt;:Host&lt;/b&gt;" style="html=1;whiteSpace=wrap;" parent="1" vertex="1">
          <mxGeometry x="1750" y="1136" width="100" height="46" as="geometry" />
        </mxCell>
        <mxCell id="D91j-Zu3z-XHINNhoP_f-57" value="" style="endArrow=classic;html=1;rounded=0;" parent="1" source="D91j-Zu3z-XHINNhoP_f-87" edge="1">
          <mxGeometry width="50" height="50" relative="1" as="geometry">
            <mxPoint x="1640" y="1281" as="sourcePoint" />
            <mxPoint x="1800" y="1281" as="targetPoint" />
          </mxGeometry>
        </mxCell>
        <mxCell id="D91j-Zu3z-XHINNhoP_f-58" value="" style="endArrow=none;dashed=1;html=1;rounded=0;entryX=0.5;entryY=1;entryDx=0;entryDy=0;" parent="1" target="D91j-Zu3z-XHINNhoP_f-56" edge="1">
          <mxGeometry width="50" height="50" relative="1" as="geometry">
            <mxPoint x="1800" y="1360" as="sourcePoint" />
            <mxPoint x="1800" y="1220" as="targetPoint" />
          </mxGeometry>
        </mxCell>
        <mxCell id="D91j-Zu3z-XHINNhoP_f-60" value="SuccessMessage" style="html=1;whiteSpace=wrap;" parent="1" vertex="1">
          <mxGeometry x="1870" y="120" width="100" height="40" as="geometry" />
        </mxCell>
        <mxCell id="D91j-Zu3z-XHINNhoP_f-61" value="" style="endArrow=none;dashed=1;html=1;rounded=0;entryX=0.5;entryY=1;entryDx=0;entryDy=0;" parent="1" target="D91j-Zu3z-XHINNhoP_f-60" edge="1">
          <mxGeometry width="50" height="50" relative="1" as="geometry">
            <mxPoint x="1920" y="1364.2667643229167" as="sourcePoint" />
            <mxPoint x="1490" y="340" as="targetPoint" />
          </mxGeometry>
        </mxCell>
        <mxCell id="D91j-Zu3z-XHINNhoP_f-62" value="" style="endArrow=classic;html=1;rounded=0;" parent="1" edge="1">
          <mxGeometry width="50" height="50" relative="1" as="geometry">
            <mxPoint x="795.199951171875" y="1320" as="sourcePoint" />
            <mxPoint x="1920" y="1320" as="targetPoint" />
          </mxGeometry>
        </mxCell>
        <mxCell id="D91j-Zu3z-XHINNhoP_f-64" value="" style="endArrow=none;dashed=1;html=1;rounded=0;entryX=0.5;entryY=1;entryDx=0;entryDy=0;" parent="1" target="D91j-Zu3z-XHINNhoP_f-63" edge="1">
          <mxGeometry width="50" height="50" relative="1" as="geometry">
            <mxPoint x="200" y="1360" as="sourcePoint" />
            <mxPoint x="199" y="160" as="targetPoint" />
          </mxGeometry>
        </mxCell>
        <mxCell id="D91j-Zu3z-XHINNhoP_f-68" value="" style="endArrow=none;dashed=1;html=1;rounded=0;" parent="1" target="D91j-Zu3z-XHINNhoP_f-65" edge="1">
          <mxGeometry width="50" height="50" relative="1" as="geometry">
            <mxPoint x="330" y="1360" as="sourcePoint" />
            <mxPoint x="320" y="164" as="targetPoint" />
          </mxGeometry>
        </mxCell>
        <mxCell id="D91j-Zu3z-XHINNhoP_f-70" value="" style="endArrow=classic;html=1;rounded=0;dashed=1;" parent="1" target="D91j-Zu3z-XHINNhoP_f-69" edge="1">
          <mxGeometry width="50" height="50" relative="1" as="geometry">
            <mxPoint x="440" y="280" as="sourcePoint" />
            <mxPoint x="320" y="280" as="targetPoint" />
          </mxGeometry>
        </mxCell>
        <mxCell id="D91j-Zu3z-XHINNhoP_f-69" value="" style="html=1;points=[];perimeter=orthogonalPerimeter;outlineConnect=0;targetShapes=umlLifeline;portConstraint=eastwest;newEdgeStyle={&quot;edgeStyle&quot;:&quot;elbowEdgeStyle&quot;,&quot;elbow&quot;:&quot;vertical&quot;,&quot;curved&quot;:0,&quot;rounded&quot;:0};" parent="1" vertex="1">
          <mxGeometry x="436" y="240" width="10" height="80" as="geometry" />
        </mxCell>
        <mxCell id="D91j-Zu3z-XHINNhoP_f-73" value="" style="endArrow=none;dashed=1;html=1;rounded=0;entryX=0.444;entryY=1;entryDx=0;entryDy=0;entryPerimeter=0;" parent="1" target="D91j-Zu3z-XHINNhoP_f-72" edge="1">
          <mxGeometry width="50" height="50" relative="1" as="geometry">
            <mxPoint x="561" y="1360" as="sourcePoint" />
            <mxPoint x="558" y="159" as="targetPoint" />
          </mxGeometry>
        </mxCell>
        <mxCell id="D91j-Zu3z-XHINNhoP_f-76" value="" style="endArrow=none;dashed=1;html=1;rounded=0;" parent="1" target="D91j-Zu3z-XHINNhoP_f-75" edge="1">
          <mxGeometry width="50" height="50" relative="1" as="geometry">
            <mxPoint x="801" y="1360" as="sourcePoint" />
            <mxPoint x="801" y="160" as="targetPoint" />
          </mxGeometry>
        </mxCell>
        <mxCell id="D91j-Zu3z-XHINNhoP_f-78" value="" style="endArrow=none;dashed=1;html=1;rounded=0;" parent="1" target="D91j-Zu3z-XHINNhoP_f-77" edge="1">
          <mxGeometry width="50" height="50" relative="1" as="geometry">
            <mxPoint x="950" y="1360" as="sourcePoint" />
            <mxPoint x="950" y="160" as="targetPoint" />
          </mxGeometry>
        </mxCell>
        <mxCell id="D91j-Zu3z-XHINNhoP_f-77" value="" style="html=1;points=[];perimeter=orthogonalPerimeter;outlineConnect=0;targetShapes=umlLifeline;portConstraint=eastwest;newEdgeStyle={&quot;edgeStyle&quot;:&quot;elbowEdgeStyle&quot;,&quot;elbow&quot;:&quot;vertical&quot;,&quot;curved&quot;:0,&quot;rounded&quot;:0};" parent="1" vertex="1">
          <mxGeometry x="946.5" y="680" width="10" height="30" as="geometry" />
        </mxCell>
        <mxCell id="D91j-Zu3z-XHINNhoP_f-80" value="" style="endArrow=classic;html=1;rounded=0;" parent="1" target="D91j-Zu3z-XHINNhoP_f-79" edge="1">
          <mxGeometry width="50" height="50" relative="1" as="geometry">
            <mxPoint x="88.39990234375" y="840" as="sourcePoint" />
            <mxPoint x="1090" y="840" as="targetPoint" />
          </mxGeometry>
        </mxCell>
        <mxCell id="D91j-Zu3z-XHINNhoP_f-82" value="" style="endArrow=none;dashed=1;html=1;rounded=0;entryX=0.604;entryY=1.031;entryDx=0;entryDy=0;entryPerimeter=0;" parent="1" target="D91j-Zu3z-XHINNhoP_f-81" edge="1">
          <mxGeometry width="50" height="50" relative="1" as="geometry">
            <mxPoint x="1200" y="1363.2000325520833" as="sourcePoint" />
            <mxPoint x="1200.4" y="152.17000000000007" as="targetPoint" />
          </mxGeometry>
        </mxCell>
        <mxCell id="D91j-Zu3z-XHINNhoP_f-84" value="" style="endArrow=none;dashed=1;html=1;rounded=0;entryX=0.5;entryY=1;entryDx=0;entryDy=0;" parent="1" target="D91j-Zu3z-XHINNhoP_f-83" edge="1">
          <mxGeometry width="50" height="50" relative="1" as="geometry">
            <mxPoint x="1320" y="1360" as="sourcePoint" />
            <mxPoint x="1321" y="159" as="targetPoint" />
          </mxGeometry>
        </mxCell>
        <mxCell id="D91j-Zu3z-XHINNhoP_f-83" value="" style="html=1;points=[];perimeter=orthogonalPerimeter;outlineConnect=0;targetShapes=umlLifeline;portConstraint=eastwest;newEdgeStyle={&quot;edgeStyle&quot;:&quot;elbowEdgeStyle&quot;,&quot;elbow&quot;:&quot;vertical&quot;,&quot;curved&quot;:0,&quot;rounded&quot;:0};" parent="1" vertex="1">
          <mxGeometry x="1316" y="961" width="10" height="29" as="geometry" />
        </mxCell>
        <mxCell id="D91j-Zu3z-XHINNhoP_f-86" value="" style="endArrow=none;dashed=1;html=1;rounded=0;entryX=0.5;entryY=1;entryDx=0;entryDy=0;" parent="1" target="D91j-Zu3z-XHINNhoP_f-85" edge="1">
          <mxGeometry width="50" height="50" relative="1" as="geometry">
            <mxPoint x="1440" y="1361.0665690104167" as="sourcePoint" />
            <mxPoint x="1440" y="160" as="targetPoint" />
          </mxGeometry>
        </mxCell>
        <mxCell id="D91j-Zu3z-XHINNhoP_f-88" value="" style="endArrow=none;dashed=1;html=1;rounded=0;" parent="1" target="D91j-Zu3z-XHINNhoP_f-87" edge="1">
          <mxGeometry width="50" height="50" relative="1" as="geometry">
            <mxPoint x="1639" y="1360" as="sourcePoint" />
            <mxPoint x="1639" y="1190" as="targetPoint" />
          </mxGeometry>
        </mxCell>
        <mxCell id="D91j-Zu3z-XHINNhoP_f-89" value="&lt;font color=&quot;#ff0000&quot; style=&quot;font-size: 11px;&quot;&gt;Alternative&lt;/font&gt;" style="shape=umlFrame;whiteSpace=wrap;html=1;pointerEvents=0;align=left;strokeWidth=2;" parent="1" vertex="1">
          <mxGeometry x="690" y="600" width="430" height="220" as="geometry" />
        </mxCell>
        <mxCell id="D91j-Zu3z-XHINNhoP_f-90" value="" style="line;strokeWidth=2;fillColor=none;align=left;verticalAlign=middle;spacingTop=-1;spacingLeft=3;spacingRight=3;rotatable=0;labelPosition=right;points=[];portConstraint=eastwest;strokeColor=inherit;dashed=1;dashPattern=12 12;" parent="1" vertex="1">
          <mxGeometry x="700" y="772" width="420" height="8" as="geometry" />
        </mxCell>
        <mxCell id="D91j-Zu3z-XHINNhoP_f-91" value="&lt;font color=&quot;#ff0000&quot; style=&quot;font-size: 11px;&quot;&gt;Alternative&lt;/font&gt;" style="shape=umlFrame;whiteSpace=wrap;html=1;pointerEvents=0;align=center;strokeWidth=2;" parent="1" vertex="1">
          <mxGeometry x="690" y="850" width="800" height="250" as="geometry" />
        </mxCell>
        <mxCell id="D91j-Zu3z-XHINNhoP_f-93" value="" style="line;strokeWidth=2;fillColor=none;align=left;verticalAlign=middle;spacingTop=-1;spacingLeft=3;spacingRight=3;rotatable=0;labelPosition=right;points=[];portConstraint=eastwest;strokeColor=inherit;dashed=1;dashPattern=12 12;" parent="1" vertex="1">
          <mxGeometry x="690" y="1013" width="800" height="8" as="geometry" />
        </mxCell>
        <mxCell id="plqeMB06KUK5VP1IyRfw-1" value="" style="endArrow=classic;html=1;rounded=0;" parent="1" edge="1">
          <mxGeometry width="50" height="50" relative="1" as="geometry">
            <mxPoint x="205" y="360" as="sourcePoint" />
            <mxPoint x="205" y="400" as="targetPoint" />
            <Array as="points">
              <mxPoint x="235" y="360" />
              <mxPoint x="235" y="400" />
            </Array>
          </mxGeometry>
        </mxCell>
        <mxCell id="plqeMB06KUK5VP1IyRfw-4" value="refreshList()" style="text;html=1;strokeColor=none;fillColor=none;align=center;verticalAlign=middle;whiteSpace=wrap;rounded=0;" parent="1" vertex="1">
          <mxGeometry x="240" y="370" width="60" height="30" as="geometry" />
        </mxCell>
      </root>
    </mxGraphModel>
  </diagram>
</mxfile>
